# xmcd
#
# Track frame offsets:
#	150
#	12525
#	23984
#	35572
#	46822
#	58932
#	70110
#	80910
#	90098
#	100005
#	111057
#	122968
#	134772
#	146128
#	158470
#
# Disc length: 2234 seconds
#
# Revision: 1
# Processed by: cddbd v1.5.2PL0 Copyright (c) Steve Scherf et al.
# Submitted via: audiograbber 1.83.01
#
DISCID=cd08b80f
DTITLE=Jim Reeves - Jim Reves A New Way
DYEAR=2017
DGENRE=Country
TTITLE0=After Loving You
TTITLE1=When I Lost You
TTITLE2=Once Upon A Time
TTITLE3=Carolina Moon
TTITLE4=Just Out Of Reach
TTITLE5=I Never Pass There Anymore
TTITLE6=I've Enjoyed As Much Of This As I Can Stand
TTITLE7=Most Of The Time
TTITLE8=Stand In
TTITLE9=I Guess I'm Crazy
TTITLE10=I Love you Because
TTITLE11=There's a New Moon Over My Shoulder
TTITLE12=Don't Let Me Cross Over
TTITLE13=A Fallen Star
TTITLE14=I Won't Forget You
EXTD=15 great songs in a new musical seting
EXTT0=
EXTT1=
EXTT2=
EXTT3=
EXTT4=
EXTT5=
EXTT6=
EXTT7=
EXTT8=
EXTT9=
EXTT10=
EXTT11=
EXTT12=
EXTT13=
EXTT14=
PLAYORDER=
